<svg width="20" height="21" viewBox="0 0 20 21" fill="none" xmlns="http://www.w3.org/2000/svg">
<path d="M10.0003 2.55762C5.39795 2.55762 1.66699 6.28858 1.66699 10.891C1.66699 15.4933 5.39795 19.2243 10.0003 19.2243C14.6027 19.2243 18.3337 15.4933 18.3337 10.891C18.3337 6.28858 14.6027 2.55762 10.0003 2.55762Z" fill="#90ECF4"/>
<path fill-rule="evenodd" clip-rule="evenodd" d="M13.0896 8.63519C13.415 8.96063 13.415 9.48827 13.0896 9.8137L9.75625 13.147C9.43081 13.4725 8.90317 13.4725 8.57774 13.147L6.91107 11.4804C6.58563 11.1549 6.58563 10.6273 6.91107 10.3019C7.23651 9.97642 7.76414 9.97642 8.08958 10.3019L9.16699 11.3793L11.9111 8.63519C12.2365 8.30975 12.7641 8.30975 13.0896 8.63519Z" fill="#444BD3"/>
</svg>
